<svg xmlns="http://www.w3.org/2000/svg" width="10.383" height="15.036" viewBox="0 0 10.383 15.036">
  <g id="full-trash-container" transform="translate(-4.791 0)">
    <path id="Path_21" data-name="Path 21" d="M13.877,5.76c.029-.139-.057-.29-.343-.353-.035-.376-.662-1.128-1.058-.573-.053-.233-.383-.518-.716,0,.035-.77-.7-1.182-1.524-.573-.125-.269-1-.3-1,.573-.179-.27-.753-.269-.86,0a.706.706,0,0,0,.251.717.665.665,0,0,0-.349.21H7.186L12.368.577a1.987,1.987,0,0,0-2.8,0L9.152.992a.991.991,0,0,0-1.044.224l-2.1,2.1a.991.991,0,0,0-.225,1.044l-.415.416a1.985,1.985,0,0,0,0,2.8L6.478,6.468V13.3a1.744,1.744,0,0,0,1.739,1.739h5.217A1.744,1.744,0,0,0,15.174,13.3V5.76ZM9.086,13.3a.58.58,0,1,1-1.159,0V7.5a.58.58,0,1,1,1.159,0Zm2.32,0a.58.58,0,1,1-1.16,0V7.5a.58.58,0,1,1,1.16,0Zm2.319,0a.58.58,0,1,1-1.159,0V7.5a.58.58,0,1,1,1.159,0Z" fill="#d4413c"/>
  </g>
</svg>
