<?xml version="1.0" encoding="utf-8"?>
<!-- Generator: Adobe Illustrator 22.0.1, SVG Export Plug-In . SVG Version: 6.00 Build 0)  -->
<svg version="1.1" id="Layer_1" xmlns="http://www.w3.org/2000/svg" xmlns:xlink="http://www.w3.org/1999/xlink" x="0px" y="0px"
	 viewBox="0 0 100 100" style="enable-background:new 0 0 100 100;" xml:space="preserve">
<style type="text/css">
	.st0{display:none;fill:#ED2424;}
	.st1{fill:#DC5734;}
	.st2{fill:#FFFFFF;}
	.st3{fill:#F9F9F9;}
</style>
<rect x="-0.3" y="-0.2" class="st0" width="100" height="100"/>
<g>
	<g>
		<g>
			<g>
				<ellipse class="st1" cx="49.7" cy="49.8" rx="48.6" ry="47.6"/>
				<path class="st2" d="M95.7,58.8c0,0-3,13.9-9.1,19.7l-0.5,0.2L86,78.5c0,0,6-8,7.9-16.8c0,0-0.3-0.9-1-0.3
					c0,0-3.1,10.9-8.2,15.9l-0.4,0.2l0.1-0.5c0,0,6.6-9.6,7.4-15.8c0,0,0-1.1-0.8-0.3c0,0-2.4,8.5-7.5,14.9l-0.7,0.3l-0.2-0.5
					c0,0,5.4-7.2,7.2-14.9c0,0,0-1.1-1-0.3c0,0-1.4,6.9-7.1,14L81,74.8l0-0.5c0,0,5.2-6.8,7-15.6c0,0,0-1.4,0.9-2
					c0,0,0.3-0.4,0.9-0.4c0,0,1.1,0.2,1.5-1.3c0,0,2.1-11.8-6.1-25.4l-3.8-5.1c0,0-1.6-1.6-0.3-3.4c0,0,1.7-1.6,3.5,0
					c0,0,7.4,7.9,8.9,22.6c0,0,0.8,6.1-0.1,11.1c0,0-0.3,0.9,0.3,1.9c0,0,0.3,0.5,0.7,0.5C94.5,57.2,95.3,57.1,95.7,58.8z"/>
				<path class="st2" d="M83.3,19.9c0,0-2.9-0.9-3.5,2.8c0,0-5.9-6.9-13.6-10.4c0,0-10.6-5.5-23.3-3.7c0,0-12.6,0.7-24.1,11.4
					c0,0,8.8-10.1,23.6-13.2c0,0,13.8-3.4,28.3,3.8C70.7,10.6,79.1,14.7,83.3,19.9z"/>
				<path class="st2" d="M11.7,42.2c0,0,6.5-2.5,6.7-15c0,0,0.2-5.1-2.3-5.7c0,0-2.6-1.5-7.2,3.5c0,0-5.5,6.3-4.8,11.9
					c0,0-0.5,3.3,1.9,4.8c0,0,1.7,1.3,1.1,4.8c0,0-1.2,9.5,2.2,19.5c0,0,3.7,10.4,9,15.7c0,0,2.4,1.8,4-0.3c0,0,1-0.9-0.3-3.3
					c0,0-3.8-3.8-6.6-8.6c0,0-4.1-6.8-5.4-13.9c0,0-1.4-8-0.8-10.1c0,0-0.3-0.9,0.7-2.2C9.9,43.2,10.6,42.3,11.7,42.2z"/>
				<path class="st3" d="M23.5,79.6c0,0,8.6,8.3,16.1,10c0,0,8.4,2.8,14.1,2.1c0,0,4.5,0.4,12.1-1.9c0,0,7.3-2.3,12-6.1
					c0,0,3.3-2.4,4.3-3.6c0,0-3.1,3.5-7.2,6.3c0,0-4.1,3.1-11,5.6c0,0-8.1,2.8-16.9,2.1c0,0-10.5-0.3-20.2-5.8c0,0-6.1-3.9-6.9-5.2
					c0,0,1.9,0.3,2.9-1.1C22.9,82,23.5,81.4,23.5,79.6z"/>
			</g>
			<path class="st2" d="M66.9,49.8c0,9.4-7.7,17.1-17.1,17.1s-17.1-7.7-17.1-17.1s7.7-17.1,17.1-17.1S66.9,40.3,66.9,49.8z
				 M49.7,19.4c-16.8,0-30.4,13.6-30.4,30.4s13.6,30.4,30.4,30.4s30.4-13.6,30.4-30.4S66.5,19.4,49.7,19.4z"/>
		</g>
		<circle class="st2" cx="52.3" cy="51.9" r="17.8"/>
	</g>
</g>
</svg>
