<svg id="Group_129" data-name="Group 129" xmlns="http://www.w3.org/2000/svg" width="10.971" height="15.1" viewBox="0 0 10.971 15.1">
  <g id="Group_123" data-name="Group 123" transform="translate(0)">
    <g id="Group_122" data-name="Group 122">
      <path id="Path_9" data-name="Path 9" d="M80.485,1.515h-2.7V.492A.492.492,0,0,0,77.3,0H73.689A.492.492,0,0,0,73.2.492V1.515H70.5a.492.492,0,0,0-.492.492V3.522a.492.492,0,0,0,.492.492h9.986a.492.492,0,0,0,.492-.492V2.007A.492.492,0,0,0,80.485,1.515Zm-3.682,0H74.181V.985H76.8Z" transform="translate(-70.007)" fill="#d4413c"/>
    </g>
  </g>
  <g id="Group_125" data-name="Group 125" transform="translate(0.684 4.999)">
    <g id="Group_124" data-name="Group 124">
      <path id="Path_10" data-name="Path 10" d="M93.192,169.5l.408,9.63a.492.492,0,0,0,.492.471h7.8a.492.492,0,0,0,.492-.472l.408-9.63Zm3.313,8.1a.492.492,0,0,1-.985,0v-6.1a.492.492,0,0,1,.985,0Zm1.981,0a.492.492,0,0,1-.985,0v-6.1a.492.492,0,0,1,.985,0Zm1.981,0a.492.492,0,0,1-.985,0v-6.1a.492.492,0,0,1,.985,0Z" transform="translate(-93.192 -169.497)" fill="#d4413c"/>
    </g>
  </g>
</svg>
